<svg width="600" height="400" viewBox="0 0 600 400" fill="none" xmlns="http://www.w3.org/2000/svg">
<path d="M339.904 91.8076C342.851 91.6731 345.364 92.9516 347.319 94.8828C350.723 98.2444 353.066 104.161 354.706 111.461L355.024 112.939L355.03 112.966L355.454 115.085C355.706 114.911 355.969 114.747 356.24 114.593C359.06 112.989 362.267 112.852 365.338 113.337C369.991 114.072 372.624 117.964 374.074 121.013C375.617 124.256 376.51 127.984 377.063 130.614C377.755 133.899 383.138 154.292 387.164 169.415C387.839 168.264 388.563 167.18 389.343 166.188C392.03 162.766 395.583 160.15 400.112 159.853C402.64 159.687 404.922 160.075 406.832 161.2C408.77 162.342 410.016 164.061 410.773 165.977C412.203 169.592 412.055 174.343 411.588 178.908C411.347 181.268 410.998 183.742 410.646 186.191C410.29 188.661 409.932 191.104 409.653 193.493C409.088 198.341 408.908 202.572 409.623 205.789C411.368 213.643 411.778 223.927 411.568 233.338C411.377 241.916 410.662 249.991 409.885 255.178L425.157 271.722C427.294 269.568 429.515 268.188 431.809 267.54C434.488 266.783 436.984 267.104 439.131 267.939C443.107 269.486 446.044 272.869 447.514 274.662L491.377 316.25C492.579 317.39 492.629 319.289 491.489 320.491C490.349 321.693 488.45 321.744 487.248 320.604L443.257 278.895C443.164 278.806 443.076 278.712 442.995 278.613C441.549 276.84 439.425 274.492 436.955 273.531C435.818 273.089 434.668 272.968 433.44 273.314C432.467 273.589 431.279 274.207 429.915 275.467C430.46 276.222 430.649 277.219 430.332 278.17C429.3 281.266 426.646 285.05 423.471 288.87C420.213 292.79 416.115 297.085 411.835 301.258C403.295 309.584 393.816 317.624 388.447 321.422C383.834 324.685 380.21 326.411 376.787 327.268C374.521 327.835 372.418 327.993 370.368 328.037C370.732 329.015 371.376 330.118 372.168 331.223C372.973 332.345 373.847 333.356 374.53 334.095C374.869 334.461 375.155 334.752 375.352 334.949C375.449 335.047 375.525 335.122 375.574 335.169C375.598 335.192 375.617 335.21 375.627 335.22C375.632 335.224 375.635 335.228 375.637 335.229C375.735 335.322 375.827 335.422 375.912 335.527L375.913 335.528V335.529C375.914 335.53 375.916 335.531 375.917 335.532C375.92 335.536 375.924 335.541 375.929 335.548C375.94 335.562 375.957 335.583 375.979 335.609C376.022 335.663 376.087 335.745 376.172 335.85C376.342 336.061 376.594 336.372 376.917 336.771C377.563 337.569 378.495 338.721 379.64 340.134C381.93 342.96 385.073 346.829 388.48 351C395.31 359.36 403.162 368.88 407.378 373.688C408.47 374.934 408.346 376.83 407.101 377.922C405.855 379.014 403.96 378.89 402.867 377.645C398.569 372.743 390.648 363.136 383.834 354.796C380.42 350.617 377.272 346.742 374.979 343.912C373.832 342.497 372.898 341.343 372.251 340.543C371.928 340.143 371.676 339.831 371.505 339.619C371.447 339.547 371.397 339.486 371.357 339.438C371.292 339.374 371.207 339.291 371.107 339.191C370.864 338.948 370.525 338.6 370.127 338.17C369.337 337.316 368.287 336.107 367.292 334.72C366.312 333.354 365.298 331.694 364.677 329.945C364.068 328.233 363.694 326.021 364.613 323.875C365.694 321.352 366.984 319.196 368.318 317.615C368.924 316.898 369.588 316.242 370.299 315.722C365.26 309.661 357.575 302.184 347.894 296.042C325.537 281.859 316.349 259.658 316.349 235.309C316.349 216.995 309.627 201.433 304.8 192.378C304.436 193.156 304.051 193.952 303.64 194.765C298.597 204.727 295.473 212.336 293.616 217.765C291.72 223.31 291.231 226.34 291.231 227.259C291.231 227.313 291.23 227.368 291.227 227.423C290.11 247.843 283.261 266.457 275.506 280.098C271.628 286.919 267.482 292.571 263.638 296.62C261.718 298.642 259.824 300.316 258.03 301.537C256.29 302.722 254.395 303.654 252.507 303.843C249.46 304.148 246.153 305.651 243.127 307.613C240.135 309.553 237.682 311.769 236.391 313.152C236.357 313.189 236.321 313.224 236.285 313.259L226.609 322.642C228.487 329.405 228.493 333.968 226.772 337.571C225.848 339.508 224.528 340.937 223.235 342.136C222.599 342.726 221.918 343.307 221.291 343.849C220.646 344.406 220.024 344.951 219.409 345.542C215.527 349.275 209.477 354.641 205.745 357.932C207.702 365.597 203.181 371.778 200.312 374.646C199.141 375.818 197.241 375.818 196.069 374.646C194.898 373.475 194.898 371.575 196.069 370.403C198.646 367.827 201.447 363.398 199.617 358.403C184.317 319.831 166.261 302.913 155.59 293.463C148.993 287.621 143.494 285.122 139.403 284.111C135.436 283.131 132.621 283.508 131.16 283.791C131.113 283.81 131.006 283.852 130.824 283.936C130.48 284.093 130.007 284.327 129.402 284.642C128.197 285.269 126.574 286.162 124.62 287.269C120.717 289.478 115.577 292.489 109.971 295.821C98.7626 302.484 85.7515 310.394 77.1904 315.645C75.7781 316.511 73.9307 316.068 73.0645 314.655C72.1984 313.243 72.6415 311.396 74.0537 310.529C82.6286 305.27 95.6644 297.345 106.904 290.664C112.522 287.325 117.707 284.287 121.665 282.047C123.641 280.928 125.334 279.995 126.632 279.319C127.278 278.983 127.854 278.697 128.332 278.479C128.712 278.305 129.309 278.041 129.87 277.929L130.703 277.776C132.841 277.426 136.313 277.168 140.843 278.287C141.102 278.351 141.363 278.42 141.628 278.493L161.327 264.963V264.964C164.676 262.576 171.495 260.639 179.186 264.188C183.724 260.866 190.773 252.492 190.104 238.787C189.59 228.239 189.391 218.248 189.881 209.602C190.367 201.021 191.541 193.471 193.939 187.97C195.784 183.738 195.559 179.746 195.146 175.487C194.76 171.511 194.042 166.571 196.333 162.153C198.733 157.525 203.669 155.163 208.646 156.318C212.034 157.105 215.067 159.409 217.287 163.08C218.107 160.778 218.938 158.476 219.773 156.195C225.491 140.594 231.585 125.588 236.06 118.787C241.73 110.169 248.683 107.289 254.397 109.594C255.797 110.158 257.012 111.011 257.999 112.062C259.224 109.592 260.686 107.099 262.361 104.894C265.973 100.14 271.577 95.5304 278.519 97.8701C285.184 100.117 287.304 106.161 287.586 111.608C287.705 113.904 287.517 116.256 287.16 118.484C287.643 118.408 288.13 118.371 288.622 118.379C292.227 118.436 294.901 120.787 296.567 123.572C299.856 129.07 300.507 138.088 297.427 146.147C295.8 150.403 294.579 154.281 293.64 157.436C292.936 159.8 292.34 161.933 291.859 163.434C292.369 163.035 292.876 162.681 293.382 162.371C296.47 160.48 299.578 160.177 302.168 161.314L302.169 161.313C305.194 162.641 308.426 165.784 309.336 171.408C309.923 175.036 309.527 179.571 307.672 185.227C312.43 193.353 322.349 212.195 322.349 235.309C322.349 258.041 330.825 278.109 351.107 290.976C365.57 300.15 376.026 312.242 380.396 319.407C381.749 318.679 383.261 317.741 384.982 316.523C390.006 312.97 399.237 305.161 407.646 296.962C411.841 292.872 415.78 288.736 418.856 285.034C420.896 282.581 422.441 280.448 423.456 278.726L404.49 258.179C403.859 257.494 403.581 256.555 403.738 255.637C404.54 250.961 405.364 242.438 405.57 233.204C405.777 223.942 405.353 214.232 403.767 207.091C402.815 202.81 403.122 197.704 403.693 192.799C403.983 190.311 404.356 187.774 404.707 185.337C405.061 182.879 405.392 180.519 405.619 178.298C406.089 173.7 406.028 170.295 405.193 168.184C404.819 167.236 404.343 166.697 403.786 166.369C403.2 166.024 402.211 165.727 400.505 165.839C398.259 165.986 396.121 167.271 394.062 169.894C392.349 172.074 390.845 174.999 389.557 178.401C389.923 179.936 389.35 181.485 388.195 182.428C385.695 190.706 384.48 200.159 384.144 206.597C384.101 207.406 383.734 208.165 383.124 208.698C369.787 220.368 367.534 236.337 368.033 242.575C368.165 244.227 366.934 245.674 365.282 245.806C363.631 245.938 362.185 244.706 362.053 243.055C361.454 235.571 363.967 218.154 378.226 205.033C378.65 198.534 379.86 189.567 382.243 181.398C382.053 181.083 381.903 180.737 381.803 180.363C378.019 166.22 370.134 136.538 369.234 132.262C368.7 129.722 367.96 126.783 366.85 124.448C365.647 121.919 364.607 121.321 364.09 121.239C361.991 120.908 360.843 121.179 360.194 121.548C359.614 121.878 358.824 122.631 358.205 124.695C358.073 125.136 357.87 125.536 357.614 125.89L357.751 126.571C358.184 128.737 356.779 130.845 354.613 131.278C352.447 131.711 350.34 130.307 349.906 128.141L347.19 114.561L346.883 113.137C345.319 106.217 343.396 102.252 341.698 100.575C340.934 99.8202 340.486 99.789 340.27 99.7988C339.957 99.8132 339.22 99.9844 338.036 100.953C336.463 103.314 335.473 107.005 335.22 111.98C334.958 117.116 335.503 123.129 336.562 129.411C338.681 141.969 342.76 155.044 345.867 163.212C346.653 165.276 345.615 167.587 343.551 168.373C341.486 169.159 339.175 168.121 338.39 166.057C335.148 157.535 330.9 143.943 328.674 130.741C328.282 128.42 327.951 126.094 327.698 123.795C327.341 123.6 327.007 123.347 326.711 123.036C325.679 121.95 324.072 121.65 322.336 122.998C320.508 124.418 318.272 128.101 318.639 135.316C318.942 141.283 320.992 150.877 323.556 160.723C326.092 170.464 329.034 180.097 330.963 185.972C331.652 188.07 330.509 190.33 328.41 191.02C326.311 191.709 324.051 190.566 323.362 188.467C321.39 182.46 318.399 172.665 315.814 162.738C313.257 152.916 310.999 142.6 310.649 135.723C310.2 126.884 312.863 120.226 317.43 116.68C320.344 114.417 323.895 113.611 327.158 114.392C327.162 113.437 327.183 112.496 327.23 111.573C327.528 105.735 328.753 100.066 331.827 95.874L331.959 95.7051C332.094 95.5398 332.243 95.3848 332.403 95.2432C334.561 93.3346 337.082 91.9367 339.904 91.8076ZM390.278 326.372C391.546 325.305 393.439 325.467 394.506 326.734L416.044 352.309C417.111 353.576 416.949 355.469 415.682 356.536C414.414 357.603 412.521 357.441 411.454 356.174L389.916 330.599C388.849 329.331 389.011 327.439 390.278 326.372ZM176.537 269.574C170.863 267.017 166.383 268.71 164.784 269.866C164.765 269.88 164.745 269.894 164.725 269.908L148.363 281.146C151.791 282.894 155.545 285.408 159.568 288.971C170.294 298.469 188.089 315.21 203.463 351.945C207.134 348.696 211.996 344.346 215.25 341.217C215.987 340.508 216.712 339.875 217.368 339.309C218.043 338.726 218.617 338.236 219.154 337.737C220.209 336.758 220.905 335.936 221.358 334.986C222.224 333.173 222.619 329.984 220.339 322.583C208.777 296.092 194.528 285.075 182.601 273.775C181.338 272.579 180.101 271.621 178.902 270.858C177.977 270.827 177.089 270.372 176.537 269.574ZM406.307 313.358C407.513 312.223 409.412 312.279 410.548 313.484L432.422 336.704C433.558 337.91 433.501 339.809 432.295 340.945C431.089 342.081 429.19 342.024 428.054 340.818L406.181 317.599C405.045 316.393 405.101 314.495 406.307 313.358ZM421.437 300.247C422.635 299.104 424.535 299.149 425.679 300.348L446.542 322.221C447.685 323.42 447.641 325.319 446.442 326.463C445.244 327.606 443.345 327.561 442.201 326.362L421.337 304.488C420.193 303.289 420.238 301.391 421.437 300.247ZM373.937 320.498C373.925 320.505 373.913 320.512 373.899 320.521C373.684 320.669 373.34 320.969 372.903 321.486C372.791 321.62 372.675 321.762 372.559 321.915C373.271 321.847 373.97 321.745 374.684 321.595C374.454 321.242 374.21 320.874 373.948 320.495C373.944 320.496 373.94 320.498 373.937 320.498ZM276.602 103.557C273.623 102.553 270.458 104.155 267.139 108.523C264.093 112.532 261.752 117.89 260.484 121.806C260.304 122.513 260.049 123.219 259.712 123.912C256.35 130.821 251.491 141.625 247.128 152.582C242.74 163.601 238.947 174.541 237.604 181.818C237.303 183.447 235.738 184.525 234.109 184.225C232.48 183.924 231.404 182.359 231.704 180.729C233.165 172.817 237.16 161.395 241.554 150.362C245.972 139.267 250.892 128.328 254.317 121.287C254.393 121.131 254.458 120.974 254.516 120.817C254.535 120.728 254.558 120.639 254.586 120.551C254.623 120.431 254.662 120.311 254.701 120.188C255.188 117.997 254.018 115.91 252.153 115.158C250.294 114.409 246.018 114.569 241.072 122.085C237.055 128.191 231.189 142.484 225.407 158.26C219.678 173.894 214.173 190.577 210.857 201.158C210.362 202.739 208.679 203.619 207.099 203.124C205.518 202.629 204.638 200.945 205.133 199.364C207.397 192.136 210.674 182.086 214.35 171.452C214.222 171.232 214.117 170.994 214.047 170.737C212.446 164.905 209.486 162.673 207.29 162.163C205.09 161.652 202.848 162.622 201.659 164.915C200.361 167.418 200.67 170.298 201.117 174.908C201.537 179.236 201.952 184.602 199.439 190.367C197.48 194.863 196.347 201.539 195.871 209.94C195.399 218.276 195.586 228.023 196.097 238.494C196.798 252.874 190.245 262.554 184.567 267.543C185.285 268.114 186.007 268.737 186.728 269.42C197.958 280.059 212.37 291.338 224.219 316.601L232.065 308.993C233.682 307.273 236.48 304.772 239.862 302.579C243.254 300.38 247.504 298.313 251.91 297.872C252.351 297.828 253.261 297.526 254.653 296.578C255.993 295.666 257.562 294.304 259.286 292.488C262.729 288.862 266.599 283.624 270.29 277.132C277.674 264.144 284.178 246.424 285.235 227.095C285.277 225.071 286.068 221.295 287.939 215.823C289.903 210.083 293.144 202.215 298.287 192.055C303.24 182.269 304.012 176.071 303.413 172.367C302.838 168.814 300.977 167.343 299.758 166.808H299.757C299.32 166.616 298.289 166.403 296.516 167.488C294.787 168.547 292.496 170.783 289.889 175.078L289.363 175.965C287.144 179.799 284.128 185.279 281.451 191.02C278.751 196.81 276.493 202.663 275.656 207.297C275.361 208.927 273.801 210.01 272.171 209.716C270.541 209.421 269.458 207.861 269.752 206.23C270.73 200.812 273.258 194.391 276.013 188.483C278.79 182.527 281.899 176.882 284.17 172.959C285.677 170.357 287.186 168.216 288.687 166.49C288.332 166.492 287.97 166.435 287.618 166.303C286.067 165.721 285.281 163.991 285.862 162.44C286.3 161.274 286.892 159.073 287.89 155.723C288.851 152.494 290.121 148.458 291.822 144.006C294.375 137.328 293.593 130.286 291.419 126.652C290.354 124.873 289.289 124.39 288.527 124.378C287.887 124.368 286.75 124.669 285.209 126.087C285.159 126.226 285.112 126.364 285.062 126.497C284.738 127.36 284.057 127.984 283.251 128.27C278.434 134.458 273.228 145.711 268.451 157.873C264.21 168.673 260.424 179.875 257.653 188.229L256.529 191.624L256.524 191.64C256.004 193.212 254.307 194.067 252.734 193.547C251.162 193.027 250.308 191.33 250.827 189.757L250.832 189.742C253.649 181.216 257.95 168.198 262.866 155.68C267.736 143.279 273.368 130.946 278.938 124.052C279.276 123.633 279.621 123.234 279.97 122.855C280.957 119.747 281.786 115.632 281.594 111.919C281.367 107.55 279.855 104.654 276.602 103.557ZM431.481 287.51C432.653 286.338 434.552 286.338 435.724 287.51L458.944 310.729C460.116 311.9 460.116 313.8 458.945 314.972C457.774 316.143 455.874 316.143 454.702 314.972L431.481 291.752C430.31 290.58 430.31 288.681 431.481 287.51ZM515.062 262.396C520.938 262.396 525.701 267.16 525.701 273.036C525.701 278.912 520.938 283.675 515.062 283.676C509.185 283.676 504.421 278.912 504.421 273.036C504.421 267.16 509.185 262.396 515.062 262.396ZM515.062 270.396C513.603 270.396 512.421 271.578 512.421 273.036C512.421 274.494 513.603 275.676 515.062 275.676C516.519 275.675 517.701 274.494 517.701 273.036C517.701 271.578 516.519 270.396 515.062 270.396ZM130.055 225.625C133.013 225.625 135.412 228.024 135.412 230.982C135.412 233.941 133.013 236.339 130.055 236.339C127.096 236.339 124.698 233.941 124.698 230.982C124.698 228.024 127.096 225.625 130.055 225.625ZM66.5908 175.431C72.4956 175.73 77.1914 180.613 77.1914 186.592L77.1768 187.167C76.8772 193.072 71.9947 197.768 66.0156 197.768L65.4404 197.753C59.7262 197.463 55.1444 192.881 54.8545 187.167L54.8398 186.592C54.8398 180.42 59.8434 175.416 66.0156 175.416L66.5908 175.431ZM66.0156 181.416C63.1572 181.416 60.8398 183.733 60.8398 186.592C60.84 189.45 63.1573 191.768 66.0156 191.768C68.8739 191.768 71.1912 189.45 71.1914 186.592C71.1914 183.733 68.8741 181.416 66.0156 181.416ZM501.393 156.545C504.401 155.187 508.312 155.096 513.347 156.169C514.967 156.514 516 158.108 515.655 159.729C515.31 161.349 513.716 162.382 512.096 162.037C507.598 161.079 505.18 161.419 503.861 162.014C502.686 162.544 501.948 163.477 501.348 165.079C501.038 165.905 500.793 166.839 500.544 167.912C500.311 168.915 500.051 170.166 499.757 171.29C499.168 173.542 498.22 176.304 495.911 178.267C492.59 181.09 488.647 181.591 485.351 181.221C482.091 180.855 479.177 179.62 477.408 178.546C475.992 177.686 475.542 175.84 476.401 174.424C477.261 173.008 479.106 172.558 480.522 173.417C481.67 174.114 483.759 175.004 486.021 175.258C488.245 175.507 490.346 175.123 492.025 173.695C492.842 173.001 493.418 171.817 493.952 169.772C494.22 168.748 494.42 167.762 494.699 166.558C494.962 165.423 495.278 164.178 495.73 162.973C496.653 160.512 498.242 157.968 501.393 156.545ZM105.035 90.6152C105.76 89.1257 107.556 88.5049 109.046 89.2295C111.27 90.3112 114.74 92.0921 117.959 93.9346C119.567 94.855 121.145 95.8092 122.485 96.7139C123.764 97.5768 125.04 98.5354 125.874 99.4736C127.862 101.711 128.957 104.866 127.976 108.334C127.028 111.68 124.303 114.769 119.892 117.454C118.368 118.382 117.854 119.285 117.687 119.911C117.512 120.564 117.594 121.368 118.076 122.289C119.114 124.273 121.551 125.909 123.79 126.027C125.355 126.11 126.934 126.09 128.569 126.073C130.158 126.057 131.837 126.043 133.404 126.165C136.436 126.402 140.096 127.22 142.121 130.691C143.634 133.285 143.735 135.8 142.935 138.076C142.214 140.125 140.805 141.827 139.74 143.071C138.512 144.507 137.721 145.376 137.278 146.232C136.97 146.83 137.019 147.019 137.198 147.337C138.048 148.848 139.52 149.956 141.249 150.716C142.982 151.477 144.718 151.773 145.672 151.816C147.327 151.892 148.607 153.295 148.532 154.95C148.457 156.605 147.054 157.886 145.399 157.811C143.763 157.736 141.294 157.29 138.835 156.209C136.371 155.126 133.663 153.29 131.969 150.278C130.558 147.77 130.963 145.383 131.948 143.477C132.799 141.83 134.242 140.269 135.18 139.172C136.281 137.884 136.971 136.95 137.275 136.085C137.499 135.448 137.553 134.768 136.938 133.715C136.491 132.947 135.557 132.351 132.937 132.146C131.678 132.048 130.265 132.056 128.631 132.073C127.043 132.09 125.265 132.114 123.475 132.02C119.001 131.784 114.725 128.827 112.76 125.07C111.74 123.121 111.247 120.768 111.89 118.362C112.539 115.931 114.234 113.874 116.772 112.329C120.486 110.068 121.824 108.034 122.202 106.699C122.545 105.487 122.227 104.401 121.39 103.459C121.093 103.125 120.362 102.52 119.128 101.688C117.956 100.897 116.518 100.023 114.979 99.1416C111.903 97.3808 108.554 95.6638 106.421 94.626C104.931 93.9012 104.31 92.1052 105.035 90.6152ZM465.336 88.0879C467.338 87.1533 469.719 88.018 470.653 90.0195C471.588 92.0212 470.722 94.4013 468.721 95.3359C468.248 95.5569 466.935 96.4969 465.414 98.0176C463.924 99.5078 462.791 101.003 462.34 101.994C461.425 104.005 459.054 104.894 457.043 103.979C455.032 103.065 454.144 100.692 455.059 98.6816C456.096 96.4017 458.013 94.1046 459.757 92.3604C461.471 90.6467 463.578 88.9089 465.336 88.0879ZM236.429 36.0635C237.742 35.0534 239.626 35.2992 240.636 36.6123L260.092 61.9062C261.102 63.2195 260.856 65.1031 259.543 66.1133C258.23 67.1233 256.346 66.8777 255.336 65.5645L235.88 40.2705C234.87 38.9573 235.116 37.0736 236.429 36.0635ZM327.727 34.7871C328.67 33.4252 330.539 33.0856 331.901 34.0283C333.263 34.9715 333.603 36.841 332.66 38.2031L315.147 63.4971C314.204 64.8593 312.335 65.199 310.973 64.2559C309.611 63.3126 309.271 61.444 310.214 60.082L327.727 34.7871ZM283.981 21.334C285.638 21.334 286.981 22.6772 286.981 24.334V56.4385C286.981 58.0953 285.638 59.4385 283.981 59.4385C282.325 59.4381 280.981 58.0951 280.981 56.4385V24.334C280.982 22.6774 282.325 21.3343 283.981 21.334Z" fill="#101011"/>
</svg>
