<svg width="600" height="400" viewBox="0 0 600 400" fill="none" xmlns="http://www.w3.org/2000/svg">
<path d="M137.094 60.4199C147.378 61.0428 152.675 63.8485 147.377 75.066C142.08 86.2834 150.494 87.8414 158.596 86.9066C166.698 85.9718 169.814 91.8924 164.205 101.864C159.718 109.841 168.983 111.212 174.176 110.901" stroke="black" stroke-width="5.11687" stroke-linecap="round" stroke-linejoin="round"/>
<path d="M251.318 46.3457L268.193 75.5745" stroke="black" stroke-width="5.11687" stroke-linecap="round" stroke-linejoin="round"/>
<path d="M295.816 33.7871V72.1836" stroke="black" stroke-width="5.11687" stroke-linecap="round" stroke-linejoin="round"/>
<path d="M338.16 44.1934L322.012 73.2606" stroke="black" stroke-width="5.11687" stroke-linecap="round" stroke-linejoin="round"/>
<path d="M460.17 144.898C471.33 153.679 483.556 152.199 483.556 133.691C483.556 125.267 493.58 120.904 499.635 128.332" stroke="black" stroke-width="5.11687" stroke-linecap="round" stroke-linejoin="round"/>
<path d="M436.588 231.373C430.614 227.15 416.07 218.333 405.687 216.85C392.709 214.996 395.49 202.636 407.541 202.018C417.182 201.523 430.923 206.344 436.588 208.816" stroke="#918F90" stroke-width="5.11687" stroke-linecap="round" stroke-linejoin="round" stroke-dasharray="10.23 10.23"/>
<path d="M452.039 252.079C435.249 247.959 400.681 239.534 396.726 238.792C391.782 237.864 382.821 232.92 383.439 226.431C384.057 219.942 389.619 219.94 396.726 220.558C403.833 221.176 416.811 227.05 423.3 223.032" stroke="#918F90" stroke-width="5.11687" stroke-linecap="round" stroke-linejoin="round" stroke-dasharray="10.23 10.23"/>
<path d="M457.6 265.362C441.12 263.714 406.553 260.665 400.125 261.654C392.091 262.89 388.692 255.783 391.164 252.384C393.636 248.985 418.356 245.586 435.661 249.913" stroke="#918F90" stroke-width="5.11687" stroke-linecap="round" stroke-linejoin="round" stroke-dasharray="10.23 10.23"/>
<path d="M469.955 284.926C463.571 283.065 447.533 279.901 434.446 282.135C430.435 284.293 421.527 287.314 417.987 282.135C414.447 276.955 427.485 267.504 434.446 263.426" stroke="#918F90" stroke-width="5.11687" stroke-linecap="round" stroke-linejoin="round" stroke-dasharray="10.23 10.23"/>
<path d="M530.598 318.44C525.944 314.583 512.965 306.949 498.283 307.268C479.93 307.667 460.38 290.512 461.178 283.33" stroke="#918F90" stroke-width="5.11687" stroke-linecap="round" stroke-linejoin="round" stroke-dasharray="10.23 10.23"/>
<path d="M166.416 238.699C173.65 239 190.831 240.461 201.681 243.898C208.689 246.611 210.497 257.009 193.995 257.461C180.793 257.823 174.052 256.254 171.716 255.501" stroke="black" stroke-width="5.11687" stroke-linecap="round" stroke-linejoin="round"/>
<path d="M136.092 234.375C139.324 230.084 150.97 220.433 171.697 216.154L183.898 212.811C190.083 210.081 203.121 206.259 205.796 212.811C208.47 219.364 199.555 224.791 194.763 226.685C186.183 229.304 167.484 235.879 161.332 241.228" stroke="black" stroke-width="5.11687" stroke-linecap="round" stroke-linejoin="round"/>
<path d="M89.4492 315.852C93.136 314.285 102.721 311.207 111.567 311.428C122.625 311.705 144.742 297.605 150.548 276.594C151.673 274.26 156.695 270.023 167.778 271.75C181.632 273.909 190.919 277.837 190.919 268.142C190.919 258.177 167.568 253.738 157.568 253.729" stroke="black" stroke-width="5.11687" stroke-linecap="round" stroke-linejoin="round"/>
<path d="M114.308 254.624C118.843 252.581 130.746 246.617 142.088 239.107C149.897 233.936 157.033 235.219 159.87 239.11C162.184 242.283 161.299 247.189 158.373 251.751C151.859 261.905 135.957 266.12 134.616 270.335C133.275 274.55 124.654 295.432 104.154 298.306" stroke="black" stroke-width="5.11687" stroke-linecap="round" stroke-linejoin="round"/>
<path d="M65.498 279.925C72.0227 275.765 89.4277 261.18 106.851 236.123C128.63 204.802 158.973 193.301 165.335 192.077C171.698 190.854 176.347 189.385 179.773 192.077C183.199 194.77 183.199 202.845 165.335 208.718C151.045 213.416 135.074 234.82 128.875 244.934" stroke="black" stroke-width="5.11687" stroke-linecap="round" stroke-linejoin="round"/>
<path d="M71.0711 342.631C76.4196 342.373 91.951 335.403 91.951 325.154C91.951 319.314 85.3476 303.299 67.4474 282.069C61.7953 276.236 47.1862 268.96 33.9668 286.517" stroke="black" stroke-width="5.11687" stroke-linecap="round" stroke-linejoin="round"/>
<path d="M5.92969 299.401L29.0111 289.102C33.9984 287.025 39.3776 288.511 48.6608 299.401C57.1516 309.363 74.9672 334.166 69.3335 347.068C66.6526 351.956 55.0246 362.924 50.3838 366.211" stroke="black" stroke-width="5.11687" stroke-linecap="round" stroke-linejoin="round"/>
<path d="M405.858 181.287C404.713 175.079 402.961 169.068 400.662 163.311C385.596 125.589 347.033 98.7598 301.84 98.7598C252.036 98.7598 210.286 131.341 199.158 175.177M375.193 270.301C356.197 287.641 330.337 298.308 301.84 298.308C265.892 298.308 234.141 281.334 215.071 255.406" stroke="black" stroke-width="5.11687" stroke-dasharray="10.23 10.23"/>
<path d="M586.433 351.522C568.191 346.007 531.454 332.176 530.435 320.977C529.162 306.979 546.131 293.404 544.859 279.405C543.586 265.405 564.798 263.284 591.099 279.405" stroke="#918F90" stroke-width="5.11687" stroke-linecap="round" stroke-linejoin="round" stroke-dasharray="10.23 10.23"/>
<path d="M591.523 337.521L534.678 308.674" stroke="#918F90" stroke-width="5.11687" stroke-linecap="round" stroke-linejoin="round" stroke-dasharray="10.23 10.23"/>
<path d="M594.069 320.977L542.738 290.434" stroke="#918F90" stroke-width="5.11687" stroke-linecap="round" stroke-linejoin="round" stroke-dasharray="10.23 10.23"/>
<path d="M586.856 294.252L546.131 274.314" stroke="#918F90" stroke-width="5.11687" stroke-linecap="round" stroke-linejoin="round" stroke-dasharray="10.23 10.23"/>
<path d="M545.966 269.131C543.802 268.699 516.968 260.907 504.416 246.192C491.864 231.477 471.522 227.582 466.328 222.821C461.135 218.06 448.824 207.914 445.987 202.478C444.508 200.654 440.798 198.434 437.785 204.148C434.019 211.291 439.201 225.662 455.686 236.785C472.171 247.907 474.412 260.067 476.541 268.961C479.494 281.3 489.915 281.673 496.403 283.46" stroke="#918F90" stroke-width="5.11687" stroke-linecap="round" stroke-linejoin="round" stroke-dasharray="10.23 10.23"/>
<circle cx="301.839" cy="200.481" r="41.5496" fill="#918F90"/>
<circle cx="519.609" cy="202.916" r="4.38482" fill="black"/>
<circle cx="101.696" cy="197.602" r="7.04153" fill="black"/>
<circle cx="428.303" cy="316.619" r="8.35572" stroke="black" stroke-width="5.11687"/>
<path d="M442.163 74.5943C444.6 76.6097 445.087 81.403 441.672 85.5343C438.256 89.6656 433.456 90.0881 431.018 88.073C428.581 86.0576 428.094 81.2637 431.51 77.1322C434.926 73.001 439.725 72.579 442.163 74.5943Z" stroke="black" stroke-width="5.11687"/>
<path d="M206.13 310.102C206.968 311.104 207.314 312.585 206.913 314.373C206.511 316.164 205.371 318.113 203.491 319.685C201.611 321.258 199.492 322.036 197.658 322.115C195.827 322.194 194.43 321.591 193.593 320.59C192.755 319.589 192.408 318.107 192.809 316.319C193.211 314.527 194.351 312.579 196.231 311.006C198.111 309.434 200.23 308.656 202.064 308.576C203.895 308.497 205.292 309.101 206.13 310.102Z" stroke="black" stroke-width="5.11687"/>
<path d="M108.736 137.764C112.793 137.764 116.149 141.115 116.149 145.333C116.149 149.551 112.793 152.902 108.736 152.902C104.679 152.902 101.322 149.551 101.322 145.333C101.322 141.115 104.679 137.764 108.736 137.764Z" stroke="black" stroke-width="5.11687"/>
</svg>
